<?xml version="1.0" standalone="no"?>
<!DOCTYPE svg PUBLIC "-//W3C//DTD SVG 20010904//EN"
 "http://www.w3.org/TR/2001/REC-SVG-20010904/DTD/svg10.dtd">
<svg version="1.0" xmlns="http://www.w3.org/2000/svg"
 width="159.000000pt" height="60.000000pt" viewBox="0 0 159.000000 60.000000"
 preserveAspectRatio="xMidYMid meet">

<g transform="translate(0.000000,60.000000) scale(0.100000,-0.100000)"
fill="#000000" stroke="none">
<path d="M381 504 c-13 -9 -38 -32 -55 -52 l-33 -35 -43 46 c-40 45 -72 58
-85 38 -6 -10 -65 -283 -65 -301 0 -19 30 -10 112 31 l82 41 88 -43 c60 -30
91 -40 98 -33 13 13 -45 292 -64 311 -9 10 -16 10 -35 -3z"/>
<path d="M560 320 l0 -110 25 0 c24 0 25 3 26 63 0 66 0 66 43 -7 l24 -40 28
55 29 54 3 -62 c3 -59 4 -63 27 -63 l25 0 0 110 0 110 -25 0 c-20 0 -31 -11
-56 -56 l-32 -55 -18 28 c-10 15 -24 40 -30 55 -9 21 -18 28 -40 28 l-29 0 0
-110z"/>
<path d="M864 396 c-28 -28 -34 -42 -34 -76 0 -34 6 -48 34 -76 40 -40 92 -46
142 -15 96 59 52 201 -63 201 -38 0 -50 -5 -79 -34z m101 -16 c46 -17 53 -85
11 -112 -23 -16 -65 -8 -80 14 -22 32 -20 55 9 83 28 29 26 28 60 15z"/>
<path d="M1112 414 c-22 -15 -29 -57 -14 -82 5 -7 31 -21 58 -30 28 -10 49
-24 49 -32 0 -21 -30 -24 -67 -6 -17 9 -32 15 -32 14 -1 -2 -7 -11 -15 -20
-11 -14 -8 -19 18 -32 38 -20 100 -20 129 0 15 10 22 25 22 48 0 40 -13 52
-71 69 -23 7 -44 18 -47 25 -6 19 28 27 61 14 25 -10 32 -9 43 6 11 14 9 19
-9 29 -31 17 -98 16 -125 -3z"/>
<path d="M1300 320 l0 -110 25 0 c23 0 25 4 25 45 l0 45 45 0 45 0 0 -45 c0
-41 2 -45 25 -45 l25 0 0 110 0 110 -25 0 c-22 0 -25 -4 -25 -40 l0 -40 -45 0
-45 0 0 40 c0 36 -2 40 -25 40 l-25 0 0 -110z"/>
<path d="M116 131 c-4 -5 3 -7 14 -4 23 6 26 13 6 13 -8 0 -17 -4 -20 -9z"/>
<path d="M196 123 c-4 -9 -2 -21 3 -26 6 -6 9 -2 8 9 -1 11 6 20 17 22 15 3
18 0 13 -18 -4 -16 -3 -20 5 -12 15 15 2 42 -21 42 -10 0 -22 -8 -25 -17z"/>
<path d="M291 113 c2 -24 2 -25 6 -5 2 12 11 22 20 22 11 0 14 -6 10 -21 -4
-16 -3 -19 5 -11 16 16 2 42 -22 42 -16 0 -20 -6 -19 -27z"/>
<path d="M382 115 c0 -16 2 -22 5 -12 2 9 2 23 0 30 -3 6 -5 -1 -5 -18z"/>
<path d="M440 132 c0 -5 9 -17 20 -27 11 -10 20 -15 20 -12 0 4 -9 16 -20 27
-11 11 -20 16 -20 12z"/>
<path d="M536 131 c-4 -5 3 -7 14 -4 23 6 26 13 6 13 -8 0 -17 -4 -20 -9z"/>
<path d="M653 116 c0 -16 2 -24 6 -20 3 5 13 9 21 9 8 0 18 -4 21 -9 4 -4 7 4
7 20 0 26 -1 27 -14 9 -14 -18 -14 -18 -28 0 -13 18 -13 17 -13 -9z"/>
<path d="M762 112 c-9 -21 -9 -23 0 -10 11 15 13 15 24 0 12 -15 12 -14 7 6
-8 33 -19 35 -31 4z"/>
<path d="M847 133 c-9 -9 -9 -43 1 -43 4 0 7 11 7 25 0 14 0 25 -1 25 0 0 -4
-3 -7 -7z"/>
<path d="M875 115 c0 -13 3 -21 8 -18 4 2 7 10 7 18 0 8 -3 16 -7 18 -5 3 -8
-5 -8 -18z"/>
<path d="M948 133 c7 -3 16 -2 19 1 4 3 -2 6 -13 5 -11 0 -14 -3 -6 -6z"/>
<path d="M1056 132 c-3 -5 4 -16 15 -25 10 -9 19 -12 19 -7 0 6 -7 13 -16 17
-13 5 -13 7 -2 14 9 6 9 9 1 9 -6 0 -14 -4 -17 -8z"/>
<path d="M1132 115 c0 -16 2 -22 5 -12 2 9 2 23 0 30 -3 6 -5 -1 -5 -18z"/>
<path d="M1183 114 c0 -15 2 -23 5 -18 9 12 35 11 44 -1 4 -5 8 4 8 20 -1 29
-1 29 -15 11 -14 -19 -16 -19 -27 -3 -12 16 -13 15 -15 -9z"/>
<path d="M1280 114 c0 -24 1 -25 21 -13 28 19 29 33 2 37 -19 3 -23 -1 -23
-24z m35 6 c-3 -5 -10 -10 -16 -10 -5 0 -9 5 -9 10 0 6 7 10 16 10 8 0 12 -4
9 -10z"/>
<path d="M1440 113 c0 -16 4 -23 8 -17 4 6 14 14 22 17 11 4 10 6 -5 7 l-20 1
20 9 c19 8 19 9 -2 9 -19 1 -23 -4 -23 -26z"/>
<path d="M560 104 c0 -8 5 -12 10 -9 6 4 8 11 5 16 -9 14 -15 11 -15 -7z"/>
<path d="M948 113 c7 -3 16 -2 19 1 4 3 -2 6 -13 5 -11 0 -14 -3 -6 -6z"/>
<path d="M110 100 c0 -5 5 -10 11 -10 5 0 7 5 4 10 -3 6 -8 10 -11 10 -2 0 -4
-4 -4 -10z"/>
</g>
</svg>
